<?xml version="1.0" encoding="utf-8" ?><svg xmlns="http://www.w3.org/2000/svg" xmlns:xlink="http://www.w3.org/1999/xlink" width="1421" height="800" viewBox="0 0 1421 800"><path fill="#F9B525" transform="scale(1.11016 1.11111)" d="M221.145 184.394C231.7 185.056 242.513 184.425 253.098 184.335L307.307 184.174L493.447 184.171L1059.6 184.346C1060.2 224.68 1059.68 265.094 1059.68 305.436L1059.66 535.469C1059.7 536.344 1059.6 537.262 1059.55 538.138C1059.21 538.347 1058.9 538.634 1058.52 538.763C1055.82 539.676 1029.97 538.807 1025.41 538.807L889.626 538.806L221.167 538.845C220.511 497.245 221.101 455.546 221.101 413.937L221.145 184.394ZM1016.22 500.997C1019.3 499.406 1022.75 497.724 1023.95 494.189C1026.38 487.038 1024.89 450.913 1024.87 439.977L1024.86 356.787L1024.91 279.918C1024.94 265.237 1025.39 250.445 1024.94 235.777C1024.85 232.893 1024.68 230.055 1023.31 227.46C1022 224.974 1019.96 223.196 1017.26 222.374C1011.8 220.713 976.311 221.861 967.761 221.861L822.847 221.863L448.522 221.865L326.145 221.863C305.435 221.863 284.305 220.953 263.65 221.995C260.189 223.625 257.397 224.998 256.052 228.856C253.386 236.507 254.934 274.767 254.954 285.509L254.972 361.75L254.977 442.408C254.958 457.191 254.524 472.105 254.986 486.871C255.079 489.818 255.184 492.437 256.505 495.132C257.958 498.095 260.378 499.602 263.453 500.588C269.329 502.471 290.411 501.216 297.498 501.215L367.456 501.198L815.669 501.212L952.158 501.193L994.736 501.217C1001.77 501.215 1009.25 501.753 1016.22 500.997Z"/><path fill="#FEFEFE" transform="scale(1.11016 1.11111)" d="M451.736 245.913C469.497 245.869 490.627 244.941 504.408 258.326C514.588 268.215 516.81 282.511 517.078 296.045C517.422 313.46 517.817 333.443 504.719 346.863C495.146 356.671 480.924 359.86 467.656 360.027C449.527 360.133 429.322 360.977 414.751 348.073C405.366 339.762 401.615 327.197 401.032 315.031C400.165 296.897 399.299 274.038 412.566 259.773C422.818 248.75 437.478 246.54 451.736 245.913ZM466.388 332.406C471.382 331.365 476.066 330.415 479.116 325.889C483.492 319.393 482.878 294.494 481.239 286.64C480.444 282.828 478.626 277.969 475.189 275.761C468.708 271.597 457.21 272.981 449.858 273.273C445.078 274.464 440.74 275.576 438.063 280.137C433.365 288.14 434.136 310.948 436.515 319.666C437.604 323.655 439.533 327.991 443.275 330.122C449.74 333.806 459.186 333.329 466.388 332.406Z"/><path fill="#FEFEFE" transform="scale(1.11016 1.11111)" d="M883.098 247.934L923.732 248.079C928.849 253.597 932.861 261.779 936.924 268.221C945.35 281.583 954.273 294.885 961.943 308.69L962.004 247.914C973.006 248.136 984.039 247.992 995.044 248.014L995.054 327.642C995.055 333.881 996.139 352.965 994.687 357.659L993.281 358.037L955.567 358.038C950.215 351.127 945.827 343 941.12 335.603C932.315 321.919 923.622 308.164 915.04 294.34L915.072 358.061L883.107 358.038C882.302 321.41 882.91 284.579 883.098 247.934Z"/><path fill="#FEFEFE" transform="scale(1.11016 1.11111)" d="M566.723 245.915C583.154 245.872 604.547 244.159 617.314 256.656C624.436 263.628 626.182 272.38 626.233 281.943C616.106 281.653 606.07 283.266 595.916 283.036C595.21 280.449 594.598 277.6 592.639 275.641C588.469 271.471 581.963 271.482 576.486 271.52C570.95 271.558 562.719 271.07 558.619 275.603C557.497 276.844 556.681 278.323 556.853 280.046C557.82 289.783 592.682 289.495 600.534 290.916C606.691 292.029 612.958 293.877 617.973 297.755C624.579 302.865 628.017 311.54 628.909 319.655C629.842 328.149 627.875 338.344 622.36 345.056C613.738 355.549 601.642 357.986 588.905 359.207C585.328 359.462 581.725 359.742 578.138 359.7C563.342 359.526 544.325 359.443 533.382 347.973C526.572 340.833 525.903 332.239 526.111 322.906C536.303 323.177 546.547 322.984 556.745 322.995C556.986 325.623 556.932 328.559 558.498 330.782C562.717 334.322 575.464 333.878 580.802 333.888C585.419 333.896 591.975 333.417 595.345 329.775C596.742 328.266 597.353 326.585 597.162 324.528C597.002 322.817 596.516 321.084 595.155 319.938C584.897 311.297 550.689 318.638 534.877 304.375C528.52 298.641 526.437 290.043 526.075 281.79C525.694 273.119 527.989 263.713 534.012 257.197C542.482 248.034 554.965 246.471 566.723 245.915Z"/><path fill="#FEFEFE" transform="scale(1.11016 1.11111)" d="M761.997 247.92C773.009 248.068 784.031 247.991 795.044 248.014L795.01 291.78C795 299.815 794.45 308.301 795.427 316.28C795.89 320.064 796.654 324.871 799.304 327.8C801.701 330.449 804.77 331.717 808.311 331.894C814.628 332.21 826.016 333.293 830.776 328.633C833.552 325.915 834.271 320.245 834.681 316.538C835.575 308.448 835.02 299.834 835.004 291.689L835.006 247.905C846.329 248.201 857.705 247.995 869.034 248.013L869.076 275.938L869.14 302.124C869.155 317.118 870.283 335.009 858.962 346.658C848.626 357.292 833.277 359.98 819.077 360.147C802.343 360.344 784.19 359.676 771.496 347.072C767.266 342.873 764.565 338.02 763.209 332.223C760.631 321.201 761.858 308.595 761.87 297.292L761.997 247.92Z"/><path fill="#FEFEFE" transform="scale(1.11016 1.11111)" d="M751.436 247.797C752.396 247.482 752.812 247.483 753.785 247.747C753.729 249.125 753.192 249.861 752.359 250.904C750.001 253.86 746.977 256.256 744.5 259.108C732.321 273.133 719.123 286.292 707.168 300.495C725.673 318.573 741.221 339.659 759.472 357.979C745.958 358.076 732.443 358.08 718.929 357.99C715.273 352.727 709.649 347.684 705.318 342.869L673.974 307.918C674.451 315.662 674.079 323.684 674.075 331.455L674.135 358.06L641.173 358.038C640.607 343.426 641.001 328.675 640.997 314.041C640.917 291.998 640.965 269.955 641.142 247.913C652.089 248.169 663.078 247.994 674.03 248.012C674.146 263.549 674.131 279.088 673.986 294.625C688.765 279.374 702.22 262.755 717.514 248.003C728.814 248.029 740.144 248.21 751.436 247.797Z"/><path fill="#FEFEFE" transform="scale(1.11016 1.11111)" d="M325.723 247.129C325.825 247.111 325.927 247.09 326.03 247.077C340.986 245.115 365.169 247.072 377.51 256.311C388.297 264.387 389.208 274.591 390.999 286.848C379.338 287.184 367.611 286.941 355.943 286.948C355.172 283.706 354.623 280.18 352.42 277.563C349.633 274.25 345.785 273.455 341.644 273.188C334.971 272.759 325.513 272.561 320.29 277.3C315.226 281.895 314.314 290.522 314.016 296.988C313.591 306.181 312.514 321.161 319.336 328.398C324.062 333.412 332.058 333.082 338.458 333.217C343.125 333.316 348.427 332.998 351.938 329.529C355.571 325.939 355.076 321.598 355.01 316.927L369.844 316.912L391.128 316.934C388.703 327.201 389.484 335.873 382.428 344.919C375.187 354.202 363.1 358.028 351.828 359.421C333.906 361.637 310.2 361.141 295.33 349.33C286.585 342.385 282.43 331.927 281.315 321.075C280.711 315.196 280.918 309.205 280.917 303.299C280.915 288.376 280.617 273.944 290.784 261.72C300.032 250.601 312.206 248.418 325.723 247.129Z"/><path fill="#FEFEFE" transform="scale(1.11016 1.11111)" d="M591.998 386.849L633.596 386.894C640.846 386.886 648.523 386.301 655.698 387.228C659.893 387.771 663.98 388.863 667.688 390.945C673.874 394.417 677.921 400.149 679.764 406.941C682.297 416.275 681.894 425.405 676.904 433.79C672.615 440.998 666.48 443.836 658.661 445.858C666.108 457.354 675.317 469.188 684.485 479.355C680.47 479.859 676.547 479.985 672.506 480.026L652.457 480.018C643.724 470.013 636.581 457.869 628.817 447.049C626.207 446.986 623.736 446.755 621.159 446.345C621.225 457.182 621.185 468.02 621.039 478.856C611.603 480.077 601.591 479.849 592.07 479.991C591.603 468.717 591.918 457.322 591.915 446.036L591.998 386.849ZM621.202 426.946C629.452 426.994 643.051 428.829 650.145 424.584C651.51 421.884 652.786 418.496 651.903 415.444C651.357 413.554 649.866 412.238 648.148 411.392C641.366 408.051 628.754 410.1 621.084 410.022L621.202 426.946Z"/><path fill="#FEFEFE" transform="scale(1.11016 1.11111)" d="M349.281 386.796C358.863 387.005 368.45 386.967 378.031 386.682C378.317 404.926 378.1 423.201 378.144 441.45C378.174 453.884 378.745 466.562 377.955 478.952C376.856 480.171 376.074 479.921 374.531 480.024L349.124 480.018C348.353 468.111 348.752 455.832 349.065 443.894C337.361 443.952 325.657 443.939 313.954 443.856C314.26 455.513 314.085 467.209 314.001 478.869C304.074 480.4 294.132 480.059 284.118 480.013C283.47 468.179 283.879 456.158 283.877 444.304C283.815 425.092 283.856 405.88 283.999 386.668C293.928 387.171 303.947 386.903 313.891 386.866C314.444 397.848 314.115 408.987 314.069 419.982L349.005 419.949C348.82 408.948 348.5 397.773 349.281 386.796Z"/><path fill="#FEFEFE" transform="scale(1.11016 1.11111)" d="M853.048 386.924L886.899 386.923C899.725 417.345 911.598 448.186 924.187 478.712C914.249 479.545 904.219 479.493 894.256 480.096C892.1 474.884 890.684 469.405 888.552 464.192L887.552 463.914C875.293 463.973 863.002 464.723 850.749 464.244C848.492 468.801 847.099 474.032 845.525 478.856C835.699 479.115 824.888 478.54 815.239 480.221C826.76 448.87 840.072 417.712 853.048 386.924ZM857.365 442.959L871.406 442.996L880.701 443.005C878.684 437.785 871.04 415.524 868.498 412.965C865.662 423.123 861.208 433.128 857.365 442.959Z"/><path fill="#FEFEFE" transform="scale(1.11016 1.11111)" d="M424.528 386.895L458.107 386.94C463.184 397.669 467.33 408.964 471.793 419.972L495.562 478.699C485.733 479.934 475.501 479.665 465.588 480.081C463.882 476.676 461.603 465.363 458.751 463.843C446.376 464.515 433.983 464.317 421.595 464.524C420.171 469.35 418.451 474.081 416.785 478.827C406.634 479.852 396.745 480.156 386.561 479.88C392.097 469.011 396.192 457.143 400.74 445.828L424.528 386.895ZM429.25 443.011L442.656 442.989L452.158 442.939C450.378 438.124 442.978 415.8 440.27 413.482C436.585 423.251 432.413 433.069 429.25 443.011Z"/><path fill="#FEFEFE" transform="scale(1.11016 1.11111)" d="M504.009 386.828C528.679 387.307 553.426 386.902 578.104 386.898L578.125 410.027L533.069 410.031L533.14 423.945C547.088 423.648 561.087 423.892 575.041 423.893L575.064 434.688L574.964 446.869C561.032 447.151 547.048 446.959 533.113 446.863L533.14 478.819C523.531 479.766 513.714 479.464 504.067 479.477C503.453 467.872 503.875 456.069 503.874 444.443C503.807 425.238 503.852 406.033 504.009 386.828Z"/><path fill="#FEFEFE" transform="scale(1.11016 1.11111)" d="M806.474 385.936L831.048 386.052C826.151 393.188 795.799 441.148 794.671 446.164C792.596 455.388 794.041 470.22 794.144 480.028L765.015 480.016L764.92 446.025L761.515 440.318C750.124 422.423 738.393 404.517 727.879 386.099C738.685 385.782 749.534 385.963 760.343 386.028C766.529 397.179 772.596 408.686 779.549 419.369C786.5 408.82 792.542 397.152 798.578 386.045L806.474 385.936Z"/><path fill="#FEFEFE" transform="scale(1.11016 1.11111)" d="M912.099 385.859C928.826 386.209 945.576 385.811 962.307 386.014C972.902 386.143 983.433 386.944 994.045 386.918L994.147 410.028L968.066 410.029L968.106 454.062L968.131 478.927C958.602 478.711 948.598 479.195 939.115 480.17C938.553 470.286 938.874 460.246 938.874 450.343C938.873 436.908 938.708 423.446 939.076 410.016L912.033 410.015C911.934 401.96 911.784 393.911 912.099 385.859Z"/><path fill="#FEFEFE" transform="scale(1.11016 1.11111)" d="M693.103 411.081C701.171 413.457 712.619 411.934 721.035 411.802C721.643 434.499 721.001 457.289 721.217 480.001C711.881 480.043 702.545 480.026 693.21 479.952C692.192 457.177 692.896 433.886 693.103 411.081Z"/><path fill="#FEFEFE" transform="scale(1.11016 1.11111)" d="M693.168 385.837C702.467 386.149 711.832 385.946 721.139 385.951L721.177 403.054L693.1 403.049C692.976 397.312 692.999 391.572 693.168 385.837Z"/><path fill="#FEFEFE" transform="scale(1.11016 1.11111)" d="M563.071 363.811L590.057 363.862L589.978 379.913C581.1 380.359 572.042 380.022 563.144 380.036C562.977 374.636 563.068 369.214 563.071 363.811Z"/></svg>